<mxfile host="app.diagrams.net" modified="2023-07-15T07:03:33.118Z" agent="Mozilla/5.0 (Windows NT 10.0; Win64; x64) AppleWebKit/537.36 (KHTML, like Gecko) Chrome/114.0.0.0 Safari/537.36" version="21.2.1" etag="9k-Hp96T9bBbD5IN2Pgx" type="github">
  <diagram name="ページ1" id="J48tNOyonItsXWkA3Buk">
    <mxGraphModel>
      <root>
        <mxCell id="0" />
        <mxCell id="1" parent="0" />
      </root>
    </mxGraphModel>
  </diagram>
</mxfile>
